<svg id="Capa_1" enable-background="new 0 0 512 512" height="150" viewBox="0 0 512 512" width="150" xmlns="http://www.w3.org/2000/svg"><g><g fill="#b9f0ff"><path d="m51.164 94.566c.002-40.77 27.953-74.849 65.596-84.397 6.868-1.742 14.058-2.67 21.46-2.67 37.907 0 70.149 24.227 82.104 58.039v.004c31.155.413 57.175 25.864 57.175 58.049 0 32.058-25.988 58.045-58.046 58.045h-123.512-44.906c-24.043 0-43.535-19.49-43.535-43.534 0-24.358 19.908-43.663 43.664-43.536z"/><path d="m469.297 70.217c-5.949-29.511-40.972-42.751-64.976-24.089-24.122-18.603-59.118-5.242-64.889 24.414-8.744 1.23-16.81 5.257-23.138 11.639-24.747 24.971-8.364 68.975 28.833 68.941l118.769-.106c23.713-.021 40.604-18.765 40.604-40.28v-.544c-.187-20.462-15.487-37.32-35.203-39.975z"/></g><g><path d="m504.5 474.5-.001-161.392c0-46.252-49.515-78.851-93.59-54.248-16.55 9.238-37.456 3.153-46.467-13.521l-24.979-46.218c-5.993-11.09-14.02-20.658-23.463-28.367h-60l-188.5 333.746h113.11 31.03 262.862c9.152 0 17.924-4.187 23.716-11.628l-.004-.007c3.936-5.076 6.286-11.445 6.286-18.365z" fill="#30cd9c"/><path d="m256.001 149.356h-.001-.001c-34.849 0-66.893 19.106-83.461 49.765l-38.85 71.89c-13.399 24.794-48.973 24.794-62.373 0-12.668-23.441-37.168-38.049-63.814-38.049l-.001 241.538c0 16.627 13.522 30 30 30h75.137 67.973c-17.275-28.971-18.033-64.894-1.997-94.568l113.924-210.811c5.993-11.09 14.02-20.658 23.463-28.367-16.663-13.604-37.755-21.398-59.999-21.398z" fill="#0caf7b"/></g><g><g><g><ellipse cx="176.443" cy="281.563" fill="#ff8e9e" rx="29.355" ry="23.377"/></g><g><ellipse cx="335.557" cy="281.563" fill="#ff8e9e" rx="29.355" ry="23.377"/></g></g></g><g><path d="m511.999 313.108c-.001-52.364-55.855-88.085-104.746-60.796-12.957 7.23-29.22 2.399-36.214-10.538l-11.99-22.187c-1.969-3.645-6.521-5.003-10.163-3.032-3.645 1.969-5.002 6.52-3.032 10.163l11.99 22.188c11.009 20.366 36.534 27.772 56.72 16.504 39.022-21.779 82.434 6.897 82.436 47.698v161.392c0 12.002-9.406 21.752-21.097 22.454-6.793.068-235.574.049-438.403.046-12.406 0-22.5-10.094-22.5-22.5l.001-233.606c20.932 2.418 39.544 14.862 49.716 33.685 16.26 30.08 59.321 30.067 75.569-.002l38.849-71.89c15.507-28.692 44.242-45.822 76.868-45.822 30.839 0 59.55 15.66 75.652 43.654 2.064 3.59 6.651 4.826 10.24 2.762 3.591-2.064 4.827-6.649 2.762-10.24-14.09-24.496-36.78-41.433-63.25-48.06 2.364-6.859 3.593-14.113 3.593-21.389 0-33.933-26.213-62.194-59.417-65.275-14.562-35.083-48.443-58.317-87.362-58.317-24.239 0-46.761 9.202-63.772 24.742-3.059 2.794-3.272 7.538-.479 10.596 2.795 3.059 7.539 3.273 10.596.479 9.659-8.824 21.43-15.179 34.038-18.377 6.381-1.619 12.982-2.44 19.617-2.44 33.595 0 63.693 21.227 74.965 52.846.961 2.982 3.74 5.153 7.04 5.196 27.446.363 49.774 23.04 49.774 50.55 0 6.532-1.232 12.823-3.631 18.777-31.729-3.108-63.055 7.912-85.133 31.768h-130.201c-19.87 0-36.035-16.164-36.035-36.033 0-19.871 16.118-36.037 35.931-36.037h.233c4.142 0 7.5-3.357 7.5-7.5.001-12.965 3.181-25.821 9.194-37.181 1.938-3.661.542-8.2-3.118-10.138-3.661-1.938-8.199-.541-10.138 3.118-6.066 11.457-9.708 24.187-10.677 37.182-24.78 3.43-43.925 24.094-43.925 50.556 0 28.14 22.895 51.033 51.035 51.033h118.669c-1.318 2.082-2.577 4.22-3.766 6.419l-38.85 71.89c-10.576 19.573-38.599 19.568-49.177.001-13.994-25.897-40.975-41.984-70.411-41.984-4.143 0-7.5 3.357-7.5 7.5l0 241.537c0 20.678 16.822 37.5 37.5 37.5l439.087-.061c19.514-1.052 35.413-17.231 35.413-37.439z"/><path d="m193.551 266.56c4.142 0 7.5-3.358 7.5-7.5v-12c0-4.142-3.358-7.5-7.5-7.5s-7.5 3.358-7.5 7.5v12c0 4.142 3.358 7.5 7.5 7.5z"/><path d="m256 273.704c8.478 0 16.54-3.671 22.119-10.073 2.721-3.123 2.396-7.86-.727-10.582-3.123-2.721-7.861-2.396-10.582.727-2.729 3.132-6.669 4.929-10.81 4.929s-8.081-1.796-10.81-4.929c-2.721-3.123-7.459-3.447-10.582-.727-3.123 2.722-3.448 7.459-.727 10.582 5.579 6.401 13.641 10.073 22.119 10.073z"/><path d="m70.68 424.814c4.141 0 7.498-3.356 7.498-7.499v-44.995c0-4.141-3.357-7.498-7.498-7.498-4.144 0-7.5 3.356-7.5 7.498v14.999h-14v-14.999c0-4.142-3.358-7.498-7.499-7.498s-7.498 3.356-7.498 7.498v44.995c0 4.143 3.357 7.499 7.498 7.499s7.499-3.356 7.499-7.499v-14.998h14v14.998c0 4.143 3.357 7.499 7.5 7.499z"/><path d="m151.645 366.826c-4.141 0-7.498 3.356-7.498 7.498v44.995c0 4.143 3.357 7.499 7.498 7.499h17.997c4.142 0 7.498-3.356 7.498-7.499s-3.356-7.499-7.498-7.499h-10.498v-37.496c0-4.142-3.358-7.498-7.499-7.498z"/><path d="m180.406 362.324v44.995c0 4.143 3.357 7.499 7.498 7.499h17.997c4.142 0 7.498-3.356 7.498-7.499s-3.356-7.499-7.498-7.499h-10.498v-37.496c0-4.142-3.358-7.498-7.499-7.498s-7.498 3.356-7.498 7.498z"/><path d="m224.819 404.818c4.142 0 7.499-3.356 7.499-7.499v-20.138l13.798-20.695c2.296-3.447 1.364-8.103-2.08-10.4-3.445-2.298-8.103-1.366-10.398 2.08l-8.831 13.246-8.832-13.246c-2.297-3.445-6.952-4.377-10.398-2.08-3.445 2.297-4.378 6.953-2.079 10.398l13.822 20.735v20.1c-.001 4.142 3.355 7.499 7.499 7.499z"/><path d="m260.418 427.953c2.427 6.472 11.619 6.47 14.041 0l3.979-10.606 3.977 10.605c2.426 6.472 11.618 6.471 14.042.001l16.874-44.994c1.455-3.878-.509-8.201-4.388-9.655-3.882-1.457-8.201.51-9.654 4.389l-9.852 26.27-3.978-10.605c-2.429-6.476-11.62-6.47-14.043-.001l-3.979 10.606-9.852-26.27c-1.453-3.878-5.772-5.843-9.653-4.389-3.879 1.454-5.844 5.777-4.389 9.655z"/><path d="m447.822 432.818c16.539 0 29.995-13.456 29.995-29.997 0-16.539-13.456-29.995-29.995-29.995h-12.499c-4.141 0-7.498 3.356-7.498 7.498v44.995c0 4.143 3.357 7.499 7.498 7.499zm-5-44.994h5c8.27 0 14.997 6.729 14.997 14.997 0 8.271-6.728 14.999-14.997 14.999h-5z"/><path d="m111.169 364.822c-13.784 0-25 11.215-25 24.999v9.993c0 13.786 11.215 25 25 25s25-11.215 25-25v-9.993c.001-13.784-11.214-24.999-25-24.999zm10.001 34.992c0 5.514-4.486 10-10 10s-10-4.486-10-10v-9.993c0-5.514 4.486-9.999 10-9.999s10 4.485 10 9.999z"/><path d="m337.169 442.814c13.785 0 25-11.215 25-25v-9.993c0-13.784-11.215-24.999-25-24.999-13.784 0-25 11.215-25 24.999v9.993c.001 13.786 11.216 25 25 25zm-9.999-34.993c0-5.514 4.486-9.999 10-9.999s10 4.485 10 9.999v9.993c0 5.514-4.486 10-10 10s-10-4.486-10-10z"/><path d="m419.17 417.814v-9.993c0-13.784-11.215-24.999-25-24.999-13.784 0-25 11.215-25 24.999v9.993c0 13.786 11.215 25 25 25s25-11.214 25-25zm-35 0v-9.993c0-5.514 4.486-9.999 10-9.999s10 4.485 10 9.999v9.993c0 5.514-4.486 10-10 10s-10-4.486-10-10z"/><path d="m475.37 63.75c-9.317-29.722-44.348-43.005-71.066-26.711-26.838-16.25-61.848-2.785-70.985 27.064-27.759 6.977-44.181 37.458-32.529 65.374 7.505 17.981 24.474 29.145 44.298 29.145h.047l118.769-.106c26.969-.024 48.096-21.011 48.096-47.78v-.613c-.202-22.074-15.619-41.172-36.63-46.373zm21.63 46.986c0 18.365-14.544 32.764-33.111 32.779l-118.769.106c-.012 0-.022 0-.034 0-13.863 0-25.247-7.445-30.454-19.922-8.817-21.123 5.271-42.836 25.845-45.732 3.169-.445 5.706-2.853 6.317-5.994 4.705-24.181 33.246-35.099 52.946-19.907 2.707 2.088 6.484 2.081 9.184-.018 19.571-15.215 48.164-4.446 53.021 19.65.633 3.135 3.183 5.523 6.352 5.95 16.213 2.185 28.553 16.205 28.703 32.543z"/><path d="m318.449 266.56c4.142 0 7.5-3.358 7.5-7.5v-12c0-4.142-3.358-7.5-7.5-7.5s-7.5 3.358-7.5 7.5v12c0 4.142 3.358 7.5 7.5 7.5z"/></g></g></svg>